<svg id="logo" xmlns="http://www.w3.org/2000/svg" xmlns:xlink="http://www.w3.org/1999/xlink" width="199.895" height="47.25" viewBox="0 0 199.895 47.25">
  <defs>
    <clipPath id="clip-path">
      <rect id="Rectangle_1" data-name="Rectangle 1" width="35" height="47.25" fill="#fff"/>
    </clipPath>
  </defs>
  <g id="Group_1" data-name="Group 1" clip-path="url(#clip-path)">
    <path id="Path_1" data-name="Path 1" d="M18.125,17.538A15.026,15.026,0,0,0,7.5,21.871a14.843,14.843,0,0,0,0,21.046,15.193,15.193,0,0,0,21.25,0,14.843,14.843,0,0,0,0-21.046l-.521-.516c-.521.722-1.146,1.341-1.771,2.063.1.1.313.206.417.413a12.122,12.122,0,0,1,0,17.126,12.409,12.409,0,0,1-17.292,0,12.122,12.122,0,0,1,0-17.126,12.353,12.353,0,0,1,8.646-3.508,10.592,10.592,0,0,1,2.6.309,21.545,21.545,0,0,0,2.188-2.167A11.2,11.2,0,0,0,18.125,17.538Z" fill="#fcd7b6"/>
    <path id="Path_2" data-name="Path 2" d="M18.125,8.666A6.606,6.606,0,0,0,12.4,6.706,7.1,7.1,0,0,0,8.125,8.872a6.441,6.441,0,0,0-1.667,4.849,12.056,12.056,0,0,0,1.771,5.261,17.15,17.15,0,0,1,2.292-1.444,7.369,7.369,0,0,1-1.354-3.92,4.047,4.047,0,0,1,1.042-2.992,4.567,4.567,0,0,1,2.5-1.341,4.146,4.146,0,0,1,4.167,2.166,1.25,1.25,0,0,0,.521.516,1.365,1.365,0,0,0,1.875-.413l-1.146-.722,1.146.722a4.146,4.146,0,0,1,4.167-2.166,4,4,0,0,1,2.5,1.341,4.527,4.527,0,0,1,1.042,2.992c-.1,2.785-2.4,6.706-8.958,11.039-1.146-.825-2.187-1.547-3.125-2.27a12.842,12.842,0,0,0-2.708,1.238,44.225,44.225,0,0,0,5,3.817,1.259,1.259,0,0,0,1.563-.1c7.813-5.055,10.625-10.007,10.833-13.618a6.6,6.6,0,0,0-5.937-7.015A6.033,6.033,0,0,0,18.125,8.666Z" fill="#f99"/>
    <path id="Path_3" data-name="Path 3" d="M32.813,16.4a1.861,1.861,0,0,1,1.042.413,1.318,1.318,0,0,1,.417,1.032,1.824,1.824,0,0,1-.417,1.032,1.344,1.344,0,0,1-1.042.413,1.861,1.861,0,0,1-1.042-.413,1.318,1.318,0,0,1-.417-1.032,1.823,1.823,0,0,1,.417-1.032A1.6,1.6,0,0,1,32.813,16.4Zm.417,1.032a.8.8,0,0,0-.521-.206c-.208,0-.312.1-.521.206a.785.785,0,0,0-.208.516c0,.206.1.31.208.516s.313.206.521.206.313-.1.521-.206a.743.743,0,0,0,0-1.032Z" fill="#9cc"/>
    <path id="Path_4" data-name="Path 4" d="M33.958,7.325a.417.417,0,0,0-.833,0v.722H32.4a.413.413,0,1,0,0,.825h.729v.722a.417.417,0,0,0,.833,0V8.769h.729a.413.413,0,1,0,0-.825h-.729Z" fill="#fc9"/>
    <path id="Path_5" data-name="Path 5" d="M8.542.1A1.861,1.861,0,0,1,9.583.516,1.191,1.191,0,0,1,10,1.547a1.823,1.823,0,0,1-.417,1.032,1.214,1.214,0,0,1-1.042.413A1.861,1.861,0,0,1,7.5,2.579a1.191,1.191,0,0,1-.417-1.032A1.823,1.823,0,0,1,7.5.516,1.214,1.214,0,0,1,8.542.1Zm.521,1.032C8.958.928,8.75.928,8.542.928s-.312,0-.417.206a.534.534,0,0,0-.208.413c0,.206.1.309.208.516a.543.543,0,0,0,.417.206c.208,0,.313-.1.521-.206a.784.784,0,0,0,.208-.516A.534.534,0,0,0,9.062,1.135Z" fill="#fc9"/>
    <path id="Path_6" data-name="Path 6" d="M3.75,9.079a.446.446,0,0,0-.417-.413.446.446,0,0,0-.417.413V9.8H2.187a.413.413,0,1,0,0,.825h.729v.722a.446.446,0,0,0,.417.413.446.446,0,0,0,.417-.413v-.722h.729a.413.413,0,1,0,0-.825H3.75Z" fill="#f99"/>
    <path id="Path_7" data-name="Path 7" d="M19.583,2.579a.417.417,0,0,0-.833,0V3.3h-.729a.446.446,0,0,0-.417.413c.1.206.208.413.521.413h.625v.722c0,.206.208.309.417.309a.446.446,0,0,0,.417-.413V4.127h.729a.446.446,0,0,0,.417-.413.446.446,0,0,0-.417-.413h-.729Z" fill="#9cc"/>
    <path id="Path_8" data-name="Path 8" d="M30.417,0a1.861,1.861,0,0,1,1.042.413,1.318,1.318,0,0,1,.417,1.032,1.824,1.824,0,0,1-.417,1.032,1.344,1.344,0,0,1-1.042.413,1.861,1.861,0,0,1-1.042-.413,1.318,1.318,0,0,1-.417-1.032A1.823,1.823,0,0,1,29.375.413,1.861,1.861,0,0,1,30.417,0Zm.521,1.032a.8.8,0,0,0-.521-.206c-.208,0-.312.1-.521.206a.784.784,0,0,0-.208.516c0,.206.1.309.208.516.208,0,.313.1.521.1s.313-.1.521-.206a.784.784,0,0,0,.208-.516A.535.535,0,0,0,30.938,1.032Z" fill="#f99"/>
    <path id="Path_9" data-name="Path 9" d="M1.458,19.086A1.86,1.86,0,0,1,2.5,19.5a1.318,1.318,0,0,1,.417,1.032A1.823,1.823,0,0,1,2.5,21.562a1.344,1.344,0,0,1-1.042.413,1.861,1.861,0,0,1-1.042-.413A1.318,1.318,0,0,1,0,20.53,1.823,1.823,0,0,1,.417,19.5,1.86,1.86,0,0,1,1.458,19.086Zm.521,1.032a.8.8,0,0,0-.521-.206c-.208,0-.312.1-.521.206a.784.784,0,0,0-.208.516c0,.206.1.309.208.516a.8.8,0,0,0,.521.206c.208,0,.313-.1.521-.206a.743.743,0,0,0,0-1.032Z" fill="#9cc"/>
  </g>
  <path id="Path_10" data-name="Path 10" d="M55.325,31.875a3.265,3.265,0,0,0,.1.95.6.6,0,0,0,.375.375,3.265,3.265,0,0,0,.95.1h.85a5.626,5.626,0,0,0,3.375-1.025,5.007,5.007,0,0,0,1.9-2.825q0-.05.1-.05a.144.144,0,0,1,.1.05q.075.025.075.05-.225,2.475-.225,4.125a.407.407,0,0,1-.1.3A.388.388,0,0,1,62.55,34H50.75q-.05,0-.05-.15t.05-.15a3.758,3.758,0,0,0,1.15-.125.751.751,0,0,0,.5-.475,3.2,3.2,0,0,0,.15-1.125V20.4a2.98,2.98,0,0,0-.15-1.1.751.751,0,0,0-.5-.475,3.292,3.292,0,0,0-1.15-.15q-.05,0-.05-.15t.05-.15l1.275.025q1.15.05,1.9.05t1.9-.05l1.275-.025q.075,0,.075.15t-.075.15a3.292,3.292,0,0,0-1.15.15.751.751,0,0,0-.5.5,3.533,3.533,0,0,0-.125,1.1ZM75.273,34.3a8.021,8.021,0,0,1-4.15-1.075,7.68,7.68,0,0,1-2.8-2.95,8.7,8.7,0,0,1-.975-4.075,7.386,7.386,0,0,1,1.3-4.4,8.131,8.131,0,0,1,3.325-2.775,10.058,10.058,0,0,1,4.175-.925,7.712,7.712,0,0,1,4.175,1.125,7.361,7.361,0,0,1,2.75,2.925,8.1,8.1,0,0,1,.975,3.875,7.664,7.664,0,0,1-1.2,4.175,8.6,8.6,0,0,1-3.225,3A8.88,8.88,0,0,1,75.273,34.3Zm.825-.625a4.143,4.143,0,0,0,2.5-.8,5.318,5.318,0,0,0,1.75-2.375,10.153,10.153,0,0,0,.625-3.75,11.247,11.247,0,0,0-.7-4.1,6.392,6.392,0,0,0-2.025-2.85,4.921,4.921,0,0,0-3.1-1.025,4.035,4.035,0,0,0-3.5,1.725,8.06,8.06,0,0,0-1.225,4.775,12.274,12.274,0,0,0,.725,4.35A7.3,7.3,0,0,0,73.173,32.6,4.471,4.471,0,0,0,76.1,33.675Zm27.705-15.3q.075,0,.075.15t-.075.15a2.471,2.471,0,0,0-1.725.8,5.689,5.689,0,0,0-1.325,2.15l-4.625,12.35q-.025.1-.275.1t-.275-.1L89.2,20.45a4.768,4.768,0,0,0-.9-1.325,1.386,1.386,0,0,0-1-.45q-.075,0-.075-.15t.075-.15a3.7,3.7,0,0,1,.525.025q.5.05,1.3.05,2.15,0,3.65-.05.4-.025,1-.025.075,0,.075.15t-.075.15A1.893,1.893,0,0,0,92.6,19a1.026,1.026,0,0,0-.4.875,2.553,2.553,0,0,0,.275,1.025L96.8,30.125l3.25-8.575a3.69,3.69,0,0,0,.25-1.2,1.608,1.608,0,0,0-.475-1.225,1.8,1.8,0,0,0-1.325-.45q-.075,0-.075-.15t.075-.15l1.225.025q1.05.05,1.875.05.474,0,1.175-.05Zm14.779,11.65c0-.033.033-.05.1-.05a.171.171,0,0,1,.125.05q.075.025.075.05a28.06,28.06,0,0,0-.25,3.55.5.5,0,0,1-.075.3.434.434,0,0,1-.3.075h-11.05q-.075,0-.075-.15t.075-.15a3.762,3.762,0,0,0,1.15-.125.752.752,0,0,0,.5-.475,3.8,3.8,0,0,0,.125-1.125V20.4a3.542,3.542,0,0,0-.125-1.1.752.752,0,0,0-.5-.475,3.3,3.3,0,0,0-1.15-.15q-.075,0-.075-.15t.075-.15h10.6c.166,0,.25.075.25.225l.05,3.325q0,.05-.15.075-.126.025-.15-.05a3.823,3.823,0,0,0-1.35-2.15,4.117,4.117,0,0,0-2.5-.7h-.75a1.577,1.577,0,0,0-1.1.325,1.3,1.3,0,0,0-.35,1v5.1h2.075a4.115,4.115,0,0,0,2.225-.5,1.579,1.579,0,0,0,.775-1.4c0-.05.041-.075.125-.075q.15,0,.15.075l-.025,2.25.025,1.2q.049.85.05,1.35,0,.05-.15.05t-.15-.05a1.86,1.86,0,0,0-.8-1.6,3.621,3.621,0,0,0-2.25-.6h-2.05v5.65a1.725,1.725,0,0,0,.275,1.075,1.044,1.044,0,0,0,.875.35h.825a5.464,5.464,0,0,0,3.125-.8A4.607,4.607,0,0,0,118.582,30.025ZM148.535,33.7c.033,0,.05.05.05.15s-.017.15-.05.15h-4.45q-.551,0-2.05-2.05-1.5-2.075-3.625-5.775a4.961,4.961,0,0,1-.575.025q-.975,0-1.375-.025v5.8a3.653,3.653,0,0,0,.125,1.125.749.749,0,0,0,.475.475,4.026,4.026,0,0,0,1.175.125c.033,0,.05.05.05.15s-.017.15-.05.15q-.825,0-1.3-.025l-1.9-.025-1.825.025q-.5.025-1.35.025-.075,0-.075-.15t.075-.15a3.758,3.758,0,0,0,1.15-.125.75.75,0,0,0,.5-.475,3.2,3.2,0,0,0,.15-1.125V20.4a3.543,3.543,0,0,0-.125-1.1.75.75,0,0,0-.5-.475,3.291,3.291,0,0,0-1.15-.15c-.033,0-.05-.05-.05-.15s.017-.15.05-.15l1.325.025q1.15.05,1.825.05.725,0,1.6-.075c.183-.017.417-.033.7-.05q.45-.025,1.05-.025a6.278,6.278,0,0,1,3.55.85,2.617,2.617,0,0,1,1.275,2.325,3.9,3.9,0,0,1-.7,2.2,5.416,5.416,0,0,1-1.825,1.7q2,3.15,3.35,4.925a15.215,15.215,0,0,0,2.425,2.6A3.506,3.506,0,0,0,148.535,33.7ZM136.46,25.45a8.976,8.976,0,0,0,1.45.1,3.1,3.1,0,0,0,1.425-.275,1.572,1.572,0,0,0,.75-.95,5.675,5.675,0,0,0,.25-1.9,4.826,4.826,0,0,0-.6-2.825,2.051,2.051,0,0,0-1.725-.775,1.591,1.591,0,0,0-1.2.375,1.809,1.809,0,0,0-.35,1.25Zm20.006,6.525a3.653,3.653,0,0,0,.125,1.125.749.749,0,0,0,.475.475,4.026,4.026,0,0,0,1.175.125q.075,0,.075.15t-.075.15q-.825,0-1.3-.025l-1.9-.025-1.85.025q-.5.025-1.35.025c-.033,0-.05-.05-.05-.15s.017-.15.05-.15a4.026,4.026,0,0,0,1.175-.125.75.75,0,0,0,.5-.475,3.2,3.2,0,0,0,.15-1.125V20.4a2.98,2.98,0,0,0-.15-1.1.75.75,0,0,0-.5-.475,3.391,3.391,0,0,0-1.175-.15c-.033,0-.05-.05-.05-.15s.017-.15.05-.15l1.35.025q1.15.05,1.85.05.775,0,1.925-.05l1.275-.025q.075,0,.075.15t-.075.15a3.291,3.291,0,0,0-1.15.15.823.823,0,0,0-.5.525,3.542,3.542,0,0,0-.125,1.1Zm23.445-13.6c.033,0,.05.05.05.15s-.017.15-.05.15a1.835,1.835,0,0,0-1.575.8,3.453,3.453,0,0,0-.575,2.1v12.8c0,.05-.042.083-.125.1a.149.149,0,0,1-.15-.025L165.761,21.1v9.725a3.564,3.564,0,0,0,.55,2.1,1.767,1.767,0,0,0,1.525.775c.033,0,.05.05.05.15s-.017.15-.05.15q-.7,0-1.075-.025l-1.35-.025-1.55.025q-.424.025-1.225.025-.075,0-.075-.15t.075-.15a2.1,2.1,0,0,0,1.725-.775,3.167,3.167,0,0,0,.65-2.1V20.25a6.012,6.012,0,0,0-1.425-1.225,2.274,2.274,0,0,0-1.2-.35c-.033,0-.05-.05-.05-.15s.017-.15.05-.15l1.05.025c.217.017.533.025.95.025l1.9-.025c.233-.017.517-.025.85-.025a.408.408,0,0,1,.3.1,5.233,5.233,0,0,1,.35.425q.425.575.6.775l8.65,9.975V21.575a3.612,3.612,0,0,0-.55-2.125,1.767,1.767,0,0,0-1.525-.775c-.033,0-.05-.05-.05-.15s.017-.15.05-.15l1.075.025q.8.05,1.35.05.5,0,1.4-.05ZM192.945,34.3a10.392,10.392,0,0,1-4.8-1.05,7.525,7.525,0,0,1-3.125-2.85,7.828,7.828,0,0,1-1.075-4.05,7.638,7.638,0,0,1,1.225-4.275,8.193,8.193,0,0,1,3.4-2.925,11.008,11.008,0,0,1,4.85-1.05,14.434,14.434,0,0,1,2.375.2,8.3,8.3,0,0,1,1.925.475.413.413,0,0,1,.275.2.79.79,0,0,1,.1.375l.325,3.475c0,.05-.042.083-.125.1a.143.143,0,0,1-.175-.075,7.158,7.158,0,0,0-2.425-3,5.925,5.925,0,0,0-3.5-1.075,4.6,4.6,0,0,0-3.9,1.775,7.936,7.936,0,0,0-1.325,4.85,10.966,10.966,0,0,0,.85,4.425,7.126,7.126,0,0,0,2.35,3,5.859,5.859,0,0,0,3.4,1.05,4.323,4.323,0,0,0,1.575-.225,1.447,1.447,0,0,0,.8-.875,5.665,5.665,0,0,0,.25-1.925,7.227,7.227,0,0,0-.15-1.8.985.985,0,0,0-.65-.7,5.473,5.473,0,0,0-1.675-.175q-.15,0-.15-.2a.274.274,0,0,1,.025-.125c.033-.05.066-.075.1-.075q2.124.125,3.425.125,1.275,0,2.65-.075.049,0,.075.075a.145.145,0,0,1,.05.1c0,.117-.042.175-.125.175a.744.744,0,0,0-.625.175,1.27,1.27,0,0,0-.225.75q-.051.55-.05,2a11.7,11.7,0,0,0,.075,1.6,4.213,4.213,0,0,1,.1.6.225.225,0,0,1-.075.2.582.582,0,0,1-.225.1A27.627,27.627,0,0,1,192.945,34.3Z" fill="#1c2836"/>
</svg>
